<svg width="271" height="210" viewBox="0 0 271 210" fill="none" xmlns="http://www.w3.org/2000/svg">
<path d="M242.505 76.2054C241.541 81.8716 244.359 86.7716 245.438 92.0122C244.076 91.9554 230.851 89.3446 230.851 89.3446C231.107 87.4338 231.599 86.4784 230.918 84.4824C229.527 80.5284 229.092 75.7987 230.151 71.7595C230.464 70.596 230.946 69.5649 231.514 68.5716C231.514 68.5716 231.532 68.5527 231.57 68.5149C232.961 66.0932 234.872 63.927 235.78 61.1176V61.0892C235.865 60.8338 235.95 60.55 236.007 60.2946C236.915 56.5392 237.549 52.6892 238.088 48.8487C238.23 47.9122 240.368 38.8878 239.914 38.5189C243.187 41.1108 245.097 42.2176 245.097 42.2176C245.58 43.1257 245.977 44.0716 246.318 45.0365C248.172 50.3622 248.115 56.5959 247.112 61.95C246.289 66.2162 244.066 70.0662 242.959 74.2473C242.761 74.8716 242.619 75.5243 242.505 76.2149V76.2054Z" fill="#3F2811"/>
<path d="M203.476 31.8784C201.678 32.2757 199.2 32.6163 197.734 33.8082C196.949 34.4419 196.646 35.3406 196.164 36.1919C195.53 37.3271 194.83 38.4338 194.215 39.5784C193.6 40.723 193.032 41.9528 192.815 43.2487C191.765 49.5676 190.053 49.7946 189.145 54.8365C188.208 60.3325 189.627 63.4636 189.968 67.0487C190.45 71.9487 188.681 79.469 180.451 88.8622C182.164 88.6919 183.847 88.3609 184.727 88.3325C184.982 88.3325 189.58 88.0771 189.864 88.0487C192.824 87.9919 192.02 88.0203 195.662 88.0771C196.145 86.3649 199.134 72.0622 199.616 70.35C199.616 70.35 197.28 66.519 196.031 62.7068C195.52 61.1649 195.208 59.6892 194.981 58.2987C194.527 55.6784 194.669 53.0014 195.293 50.4095C195.984 47.3825 196.665 44.3555 197.355 41.3379C197.686 39.8906 198.046 38.4528 198.349 37.0055C198.509 36.2582 198.443 34.9149 199.153 34.4419C200.695 33.4014 206.55 31.6514 208.196 30.819C207.884 30.819 204.157 31.7176 203.476 31.869V31.8784Z" fill="#3F2811"/>
<g style="mix-blend-mode:multiply" opacity="0.36">
<path d="M232.062 66.604C231.873 68.4108 231.759 70.9554 232.138 73.954C232.441 76.3 232.743 78.6648 234.039 81.2284C235.818 84.7189 238.58 86.8567 240.614 88.0676L190.327 86.8567C191.907 84.3121 193.714 80.7649 194.915 76.2905C197.062 68.2784 196.164 61.4108 195.35 57.5986C207.581 60.5973 219.822 63.6054 232.053 66.604H232.062Z" fill="black"/>
</g>
<path d="M78.5257 184.97V113.059H65.1689V184.97H78.5257Z" fill="#D6D6D1"/>
<path d="M166.432 184.98V113.069H153.076V184.98H166.432Z" fill="#D6D6D1"/>
<path d="M145.773 192.907H173.735V184.989H145.773V192.907Z" fill="#D6D6D1"/>
<path d="M57.8568 192.907H85.8189V184.989H57.8568V192.907Z" fill="#D6D6D1"/>
<path d="M0.229736 194.827H42.8068V186.909H0.229736V194.827Z" fill="#D6D6D1"/>
<path d="M59.7297 113.381H83.9554V100.337H59.7297V113.381Z" fill="#D6D6D1"/>
<path d="M147.646 113.381H171.872V100.337H147.646V113.381Z" fill="#D6D6D1"/>
<path d="M71.8473 100.327C77.965 100.327 82.9243 95.3677 82.9243 89.25C82.9243 83.1323 77.965 78.173 71.8473 78.173C65.7296 78.173 60.7703 83.1323 60.7703 89.25C60.7703 95.3677 65.7296 100.327 71.8473 100.327Z" fill="#F2F2F2"/>
<path d="M71.8473 97.2243C76.2514 97.2243 79.8216 93.6541 79.8216 89.25C79.8216 84.8459 76.2514 81.2756 71.8473 81.2756C67.4432 81.2756 63.873 84.8459 63.873 89.25C63.873 93.6541 67.4432 97.2243 71.8473 97.2243Z" fill="#D6D6D1"/>
<path d="M159.754 100.327C165.872 100.327 170.831 95.3677 170.831 89.25C170.831 83.1323 165.872 78.173 159.754 78.173C153.636 78.173 148.677 83.1323 148.677 89.25C148.677 95.3677 153.636 100.327 159.754 100.327Z" fill="#F2F2F2"/>
<path d="M159.754 97.2243C164.158 97.2243 167.728 93.6541 167.728 89.25C167.728 84.8459 164.158 81.2756 159.754 81.2756C155.35 81.2756 151.78 84.8459 151.78 89.25C151.78 93.6541 155.35 97.2243 159.754 97.2243Z" fill="#D6D6D1"/>
<path d="M38.3041 186.909H4.75136L9.53784 176.372L13.1419 168.454L21.5324 150.036L29.9135 168.454L33.5176 176.372L38.3041 186.909Z" fill="#D6D6D1"/>
<path d="M186.931 194.827H229.508V186.909H186.931V194.827Z" fill="#D6D6D1"/>
<path d="M208.215 150.036L224.986 186.9H191.443L208.215 150.036Z" fill="#D6D6D1"/>
<path d="M183.053 113.381H50.1V126.738H183.053V113.381Z" fill="#F2F2F2"/>
<path d="M183.053 150.036H50.1V163.393H183.053V150.036Z" fill="#F2F2F2"/>
<path d="M112.116 96.345L92.083 116.378C90.0512 118.41 90.0512 121.704 92.083 123.736L112.116 143.769C114.148 145.801 117.442 145.801 119.474 143.769L139.507 123.736C141.539 121.704 141.539 118.41 139.507 116.378L119.474 96.345C117.442 94.3133 114.148 94.3133 112.116 96.345Z" fill="#D6D6D1"/>
<path d="M112.511 98.8801L94.6181 116.773C92.8043 118.587 92.8043 121.527 94.6181 123.341L112.511 141.234C114.325 143.048 117.265 143.048 119.079 141.234L136.972 123.341C138.786 121.527 138.786 118.587 136.972 116.773L119.079 98.8801C117.265 97.0663 114.325 97.0663 112.511 98.8801Z" fill="#F2F2F2"/>
<path d="M33.5176 176.372H9.53784L13.1419 168.454H29.9135L33.5176 176.372Z" fill="#F2F2F2"/>
<path d="M220.2 176.372H196.23L199.824 168.454H216.605L220.2 176.372Z" fill="#F2F2F2"/>
<path d="M219.301 187.25C219.226 187.155 220.512 208.458 220.512 208.647H203.939C203.968 208.014 203.996 195.111 204.166 191.157L201.886 112.766C201.886 112.766 222.65 113.268 222.697 113.296C222.697 113.296 219.699 187.704 219.311 187.25H219.301Z" fill="#F2F2F2"/>
<path d="M240.368 38.8595C239.034 46.0014 237.605 52.9258 235.959 60.0109C235.032 63.9839 232.686 67.5595 229.943 70.5204C227.105 73.5758 223.965 76.6406 220.172 78.5136C216.634 80.2731 212.434 80.9068 208.735 79.2987C205.547 77.9082 203.05 75.269 201.064 72.4785C200.695 71.9676 200.326 71.4285 200.014 70.8798C196.145 64.9014 193.609 57.4474 195.312 50.4095C195.993 47.5339 196.618 44.6582 197.28 41.7825C197.62 40.3068 197.961 38.8217 198.301 37.346C198.528 36.2676 198.557 34.442 199.578 33.7609C203.759 30.9987 209.028 30.0622 213.957 30.5447C219.481 31.0839 224.949 32.3987 230.322 33.5906C234.049 34.4136 237.265 36.5798 240.368 38.8595Z" fill="#F9B995"/>
<g style="mix-blend-mode:multiply" opacity="0.2">
<path d="M240.926 41.4514C240.718 42.5866 240.018 45.8406 239.781 46.9852C239.828 46.7487 217.93 30.7244 197.649 40.1176L198.424 36.4284C202.823 33.6947 210.097 32.9757 215.782 34.1676C219.68 34.9906 237.653 39.1811 240.916 41.4514H240.926Z" fill="#FF5800"/>
</g>
<path d="M231.939 87.0462C231.627 87.7272 231.258 88.4651 230.861 89.2124L210.618 120.258L195.586 88.4462C197.185 82.9218 197.791 76.6597 199.465 71.1637C199.522 70.9367 199.55 70.7097 199.635 70.511C199.749 70.6245 199.862 70.7664 200.004 70.8799C200.316 71.4191 200.685 71.9583 201.054 72.4786C203.93 76.5178 207.941 80.2543 213.209 80.2543C213.749 80.2543 214.316 80.2259 214.836 80.1408C215.092 80.1408 215.385 79.9516 215.641 79.8948C218.63 79.5259 221.382 78.1259 223.832 76.2435C224.826 75.5056 225.772 74.7016 226.623 73.907C227.701 72.8854 228.761 71.7975 229.782 70.6908C229.896 70.5489 230.066 70.3786 230.236 70.2083C230.719 69.7259 231.315 69.1583 231.514 68.6097L231.542 68.5813C231.286 69.4327 231.031 70.2651 230.804 71.0313C229.868 74.4178 229.47 77.2083 229.953 80.5664C230.18 82.0799 230.549 83.4421 231.003 84.7759C231.286 85.5705 231.599 86.3462 231.939 87.0556V87.0462Z" fill="#F9B995"/>
<g style="mix-blend-mode:multiply" opacity="0.2">
<path d="M231.542 68.5717C231.286 69.423 231.031 70.2554 230.804 71.0217C230.691 71.4757 229.896 82.3352 231.939 87.046L231.145 89.1554C228.118 89.3919 224.816 88.7108 221.855 88.1906C214.118 86.8284 208.461 84.3784 203.107 78.5419C201.972 77.3027 200.695 76.073 199.682 74.7392C198.642 73.3487 199.03 72.8757 199.465 71.1635C199.522 70.9365 199.55 70.7095 199.635 70.5108C199.749 70.6244 199.862 70.7663 200.004 70.8798C200.316 71.419 200.685 71.9581 201.054 72.4784C203.93 76.5176 207.941 80.2541 213.209 80.2541C213.749 80.2541 214.316 80.2257 214.836 80.1406C215.092 80.1406 215.319 80.1122 215.574 80.0554C218.564 79.6865 221.382 78.1163 223.832 76.2433C224.826 75.5054 225.772 74.7014 226.623 73.9068C227.701 72.8852 228.761 71.7973 229.782 70.6906C229.896 70.5487 230.066 70.3784 230.236 70.2081C230.719 69.7257 231.315 69.1581 231.542 68.5811V68.5717Z" fill="#FF5800"/>
</g>
<path d="M251.218 45.6136C251.009 46.2379 250.593 46.8338 249.931 47.2122C249.184 47.6663 248.228 48.1487 246.97 48.6028C246.611 47.6379 246.195 46.692 245.684 45.7838C245.684 45.7838 243.678 44.6771 240.235 42.0852C239.213 41.3757 237.634 40.3163 235.505 39.2947C233.585 38.3014 229.83 37.0811 217.088 34.8014C211.838 33.8649 201.839 35.4825 201.48 35.5393C197.554 36.0784 194.745 38.8784 194.745 38.8784L194.196 36.0217L193.931 34.4514C193.723 33.4298 194.47 32.4271 195.549 32.3136C205.585 31.1501 227.928 30.0338 249.761 41.9906C251.142 42.7284 251.643 44.2703 251.227 45.6041L251.218 45.6136Z" fill="#AFAFAF"/>
<g style="mix-blend-mode:multiply" opacity="0.1">
<path d="M250.499 46.7581C227.569 27.546 195.076 33.5716 193.912 34.4514C193.704 33.4297 194.451 32.427 195.53 32.3135C205.566 31.15 227.768 30.2703 249.742 41.9905C253.166 43.8162 250.508 46.7581 250.508 46.7581H250.499Z" fill="black"/>
</g>
<path d="M253.091 40.3541C253.091 40.3541 253.015 41.4419 252.845 42.2649C252.816 42.3878 252.797 42.4824 252.769 42.577C252.504 43.523 251.7 45.027 251.246 45.5568C251.246 45.5284 251.274 45.5095 251.274 45.4811C251.303 45.3581 251.322 45.2351 251.35 45.1405C251.378 44.9703 251.378 44.8284 251.378 44.677C251.378 44.4595 251.35 44.2608 251.303 44.0432V43.9676C251.255 43.8257 251.208 43.6554 251.132 43.504L251.104 43.4757C251.104 43.3811 251.057 43.3054 251.009 43.2108C250.981 43.1824 250.981 43.1635 250.962 43.1351C250.886 42.9932 250.792 42.8419 250.669 42.7189C250.527 42.5297 250.328 42.3595 250.139 42.2081C250.016 42.1135 249.893 42.0378 249.751 41.9622C249.553 41.8676 249.392 41.773 249.193 41.6689H249.165L249.023 41.5932C247.349 40.6757 245.655 39.8527 243.981 39.0959C243.082 38.6797 242.165 38.2919 241.266 37.9324C240.736 37.7149 240.226 37.5162 239.686 37.327C239.157 37.1284 238.646 36.9392 238.107 36.75C237.596 36.5797 237.066 36.3905 236.555 36.2203C236.139 36.0784 235.704 35.927 235.297 35.804C234.38 35.5108 233.481 35.2459 232.554 34.9811C231.485 34.6878 230.426 34.404 229.376 34.1297C228.572 33.9595 227.777 33.7703 227.001 33.6189C226.103 33.4297 225.204 33.2311 224.315 33.0892C223.416 32.9189 222.546 32.777 221.676 32.654C220.872 32.5311 220.096 32.4081 219.301 32.3135C216.899 32.0203 214.553 31.8311 212.349 31.7365C211.791 31.7081 211.232 31.6892 210.703 31.6608C209.123 31.5851 207.6 31.5662 206.143 31.6135H206.115C205.509 31.6135 204.951 31.6135 204.374 31.6419H203.845C202.681 31.6892 201.565 31.7365 200.524 31.8311C200.042 31.8595 199.578 31.8784 199.143 31.9257C197.809 32.0203 196.599 32.1432 195.53 32.2662C195.284 32.2946 195.066 32.3608 194.877 32.4554C194.782 32.5027 194.678 32.55 194.584 32.6257V32.654C194.489 32.7013 194.414 32.7959 194.338 32.8716C194.262 32.9662 194.196 33.0419 194.149 33.1365H194.12C194.092 33.2311 194.045 33.3068 193.997 33.4013C193.922 33.6189 193.874 33.8365 193.874 34.0824C193.874 34.177 193.903 34.3 193.922 34.3946L194.697 38.6797L194.726 38.8216L193.874 40.2311L193.799 40.3257L193.77 40.4013L193.458 40.9122C193.458 40.9122 189.873 37.7149 188.832 36.4C187.186 34.3378 184.859 31.6703 185.484 28.9081C185.919 26.9973 188.634 25.7297 191.131 24.9824C192.323 24.623 193.43 24.3486 194.262 24.2068C194.48 24.1595 194.773 24.1122 195.132 24.0649C195.35 24.0176 195.596 23.9892 195.861 23.9419C196.059 23.9135 196.249 23.8946 196.466 23.8662C196.636 23.8378 196.807 23.8189 196.996 23.7905C197.459 23.7149 197.961 23.6959 198.424 23.6486C198.784 23.6203 199.2 23.6013 199.616 23.554C206.815 22.9486 215.924 23.6486 225.885 26.6757C226.178 26.7703 226.491 26.8649 226.784 26.9405C227.749 27.2338 228.723 27.5743 229.716 27.9054C231.003 28.3689 232.261 28.804 233.566 29.3338C235.118 29.9392 236.669 30.6392 238.239 31.3959C239.668 32.077 241.124 32.8243 242.581 33.6C243.064 33.8649 243.546 34.1297 244.038 34.423C247.018 36.1162 250.045 38.0554 253.081 40.2878L253.091 40.3541Z" fill="#DB9303"/>
<path d="M253.091 40.3541C250.063 38.1216 247.027 36.1825 244.047 34.4892C243.565 34.196 243.082 33.9311 242.591 33.6662C241.134 32.8906 239.686 32.1433 238.249 31.4622C236.669 30.7149 235.099 30.0338 233.576 29.4C232.27 28.8703 231.003 28.4352 229.726 27.9716C228.732 27.6311 227.758 27.3189 226.793 27.0068C226.5 26.9311 226.188 26.8365 225.895 26.7419C214.676 23.45 205.292 23.2514 199.626 23.6203C199.209 23.6676 198.803 23.696 198.434 23.7149C197.97 23.7622 197.469 23.7906 197.005 23.8568C196.807 23.8852 196.646 23.9041 196.476 23.9325C196.258 23.9608 196.059 23.9798 195.87 24.0081C195.605 24.0554 195.359 24.0838 195.142 24.1311C194.782 24.1784 194.489 24.2257 194.272 24.273C194.413 23.9608 195.189 21.6527 196.182 19.0135C197.535 15.3527 199.332 10.9919 200.42 9.97029C202.189 8.34326 204.469 7.84191 206.039 7.69056C206.115 7.16083 206.304 6.16759 207.08 5.36354C208.338 4.07705 210.57 3.73651 212.651 4.51218L212.68 4.48381C212.992 3.8784 213.503 3.07435 214.42 2.40272C217.041 0.55813 220.408 1.75002 220.815 1.87299V1.90137H220.843C221.43 1.46624 222.395 0.936508 223.653 0.690562C227.143 0.0378597 229.934 2.33651 230.322 2.70543H230.35C231.201 2.58245 232.365 2.58245 233.67 2.92299C237.161 3.84056 238.882 6.6311 239.27 7.31218C241.068 8.11624 243.782 9.61083 245.958 12.4014C248.209 15.1919 248.862 17.9541 249.373 20.2527C249.401 20.3946 249.42 20.5176 249.449 20.6689C250.735 26.8271 253.062 40.0608 253.081 40.373L253.091 40.3541Z" fill="#FFB000"/>
<g style="mix-blend-mode:multiply" opacity="0.1">
<path d="M206.049 7.68115C206.049 7.68115 205.462 10.1122 206.049 14.1041V7.68115Z" fill="black"/>
</g>
<g style="mix-blend-mode:multiply" opacity="0.1">
<path d="M212.68 4.50269C212.68 4.50269 210.835 9.44998 212.746 14.2365L212.68 4.50269Z" fill="black"/>
</g>
<g style="mix-blend-mode:multiply" opacity="0.1">
<path d="M220.824 1.87305C220.824 1.87305 219.623 6.19602 220.824 12.7514V1.87305Z" fill="black"/>
</g>
<g style="mix-blend-mode:multiply" opacity="0.1">
<path d="M230.35 2.6676C230.35 2.6676 231.977 10.4622 230.132 12.6L230.35 2.6676Z" fill="black"/>
</g>
<g style="mix-blend-mode:multiply" opacity="0.1">
<path d="M239.28 7.30273C239.28 7.30273 239.526 12.25 238.239 14.1041L239.28 7.30273Z" fill="black"/>
</g>
<path d="M226.434 114.932C225.734 114.166 224.778 113.618 223.757 113.409C222.442 113.126 221.051 113.391 219.803 113.911C217.022 115.065 212.273 117.713 210.599 120.268C210.608 120.249 233.651 84.9459 233.651 84.9459L238.665 89.7419C234.578 98.1324 230.416 106.504 226.424 114.942L226.434 114.932Z" fill="#D3D3D3"/>
<path d="M233.67 84.9366L231.003 84.7758L231.939 87.046L233.67 84.9366Z" fill="#727272"/>
<path d="M194.451 118.205C194.527 118.612 200.449 114.895 201.205 114.715C203.164 114.242 204.999 115.065 206.522 116.238C207.704 117.155 209.974 118.905 210.608 120.258C210.599 120.23 194.451 86.0621 194.451 86.0621L189.864 88.0486C189.864 88.0486 194.395 117.836 194.451 118.205Z" fill="#D3D3D3"/>
<path d="M194.451 86.0621H196.145L195.577 88.4459L194.451 86.0621Z" fill="#727272"/>
<g style="mix-blend-mode:multiply" opacity="0.2">
<path d="M201.158 94.869C198.509 95.9095 195.766 96.5622 192.985 97.0636L192.862 96.5338C195.577 95.7392 198.33 95.1149 201.158 94.8595V94.869Z" fill="#FF5800"/>
</g>
<g style="mix-blend-mode:multiply" opacity="0.2">
<path d="M193.458 100.583L202.095 99.9298L193.543 101.292L193.458 100.583Z" fill="#FF5800"/>
</g>
<g style="mix-blend-mode:multiply" opacity="0.2">
<path d="M206.209 103.893C205.491 103.08 204.308 103.004 203.296 102.9C200.136 102.711 196.958 103.165 193.855 103.695L193.742 102.995C196.92 102.635 200.127 102.361 203.315 102.73C204.327 102.891 205.538 103.042 206.209 103.903V103.893Z" fill="#FF5800"/>
</g>
<g style="mix-blend-mode:multiply" opacity="0.2">
<path d="M193.184 98.596L201.272 97.073L193.354 99.3149L193.184 98.596Z" fill="#FF5800"/>
</g>
<path d="M204.904 191.346C203.901 191.516 204.686 208.884 203.939 208.893C195.35 209.007 186.77 209.12 178.181 209.234C173.811 209.291 165.259 211.031 163.557 205.403C162.497 201.903 165.486 196.795 166.688 193.503C179.278 192.774 191.878 192.074 204.469 191.374C204.611 191.374 204.762 191.355 204.904 191.346Z" fill="#9B9B9B"/>
<path d="M205.538 171.207C205.538 171.566 205.509 171.935 205.509 172.295C205.509 172.682 205.509 173.07 205.481 173.486C205.481 174.309 205.453 175.132 205.434 175.984C205.339 180.562 205.169 185.415 204.951 190.476C204.923 190.769 204.923 191.053 204.904 191.346L174.199 193.068L166.688 193.503C166.518 193.474 166.328 193.455 166.158 193.427C164.124 193.209 162.109 192.869 160.095 192.386C158.978 192.093 157.796 191.753 156.945 190.911C155.876 189.795 155.535 188.149 155.299 186.569C153.189 171.859 156.339 156.904 156.604 142.053C156.822 131.997 157.484 122.027 157.645 112.028C157.843 100.176 160.653 95.5594 166.432 93.0054C168.949 91.8892 181.757 88.3986 183.62 88.2094C186.411 87.9919 193.241 86.0811 194.451 86.0811C195.861 88.55 198.642 94.5189 200.997 104.574C202.208 109.711 203.296 115.916 204.024 123.285C204.27 125.612 204.488 128.128 204.677 130.777C205.453 141.542 205.812 154.842 205.528 171.226L205.538 171.207Z" fill="#A5A5A5"/>
<path d="M255.096 209.111L220.512 208.647H220.465L220.512 208.43L219.301 187.25C219.301 187.25 226.519 187.439 233.822 189.435C233.897 189.53 233.963 189.605 234.039 189.7C234.427 190.164 256.818 194.543 258.028 194.401C258.104 194.373 258.123 194.373 258.123 194.373L260.762 201.666C262.143 205.346 259.211 209.158 255.086 209.111H255.096Z" fill="#9B9B9B"/>
<path d="M269.077 186.569C268.859 188.149 268.519 189.795 267.431 190.911C266.608 191.762 265.416 192.103 264.3 192.386C262.115 192.916 259.911 193.257 257.707 193.503L258.019 194.401L258.114 194.619C258.114 194.619 245.92 196.388 238.75 193.55C237.293 192.992 236.035 192.216 235.136 191.223C234.72 190.759 234.266 190.23 233.803 189.672C231.674 189.378 226.765 187.959 225.422 187.931C223.757 187.893 219.358 187.25 219.292 187.25C219.15 183.353 218.999 179.569 218.951 175.984V175.52C218.923 174.82 218.904 174.168 218.904 173.486C218.876 173.345 218.876 173.174 218.876 173.023C218.847 172.777 218.847 172.541 218.847 172.295C218.819 170.715 218.8 169.145 218.772 167.622V166.941C218.772 166.77 218.772 166.6 218.743 166.411V166.165C218.743 164.784 218.715 163.403 218.715 162.041V161.823C218.686 152.004 218.592 143.405 219.349 135.961C221.865 110.959 227.058 93.8189 230.549 89.3824C230.918 88.9094 231.154 88.3892 231.419 87.954C231.561 87.7365 231.712 87.5189 231.835 87.3202C232.365 86.4973 232.876 85.8446 233.339 85.3054C233.434 85.1824 233.557 85.0594 233.651 84.9459L237.019 86.204C242.212 88.0675 248.408 89.7608 249.42 90.0257C265.492 94.1878 268.159 98.2554 268.055 111.319C267.97 121.327 268.67 131.855 268.869 141.911C269.162 156.772 271.168 171.841 269.058 186.559L269.077 186.569Z" fill="#A5A5A5"/>
<g style="mix-blend-mode:multiply" opacity="0.28">
<path d="M203.93 208.893L183.62 118.858L195.35 116.701L183.62 108.509C183.62 108.509 193.241 86.0717 194.451 86.0717C196.561 89.8081 201.839 101.491 204.024 123.276C204.27 125.603 204.705 131.004 204.705 131.127C204.904 133.766 205.509 156.318 205.632 159.269C206.068 168.549 203.958 208.269 203.93 208.893Z" fill="#A5A5A5"/>
</g>
<g style="mix-blend-mode:multiply" opacity="0.28">
<path d="M225.431 118.745H241.815L220.512 208.647C220.512 208.647 218.876 172.805 218.876 172.777C218.8 170.885 220.03 130.522 220.238 128.923C222.376 112.483 225.024 103.316 225.318 102.399C225.781 100.97 226.178 99.2487 226.642 98.019C228.051 94.2352 229.243 91.4825 230.577 89.1555C230.889 88.6447 231.182 88.1622 231.447 87.7271C231.589 87.5095 231.741 87.292 231.863 87.0933C232.422 86.2703 232.932 85.6176 233.368 85.0785C233.462 84.9555 233.585 84.8325 233.68 84.719L237.047 85.9771L241.824 108.415L225.441 118.735L225.431 118.745Z" fill="#A5A5A5"/>
</g>
<g style="mix-blend-mode:multiply" opacity="0.28">
<path d="M229.12 91.8798C228.78 92.6081 223.227 104.669 220.985 124.468C218.63 145.316 218.686 169.788 218.724 170.819C218.724 170.847 220.512 208.647 220.512 208.647H216.984C216.984 208.647 212.055 118.65 212.273 117.704C212.661 116.247 229.111 91.8798 229.111 91.8798H229.12Z" fill="#A5A5A5"/>
</g>
<path d="M218.98 190.249L204.895 191.336L174.189 193.058L175.23 172.115L205.528 171.197L218.034 170.809C215.953 179.853 218.98 190.249 218.98 190.249Z" fill="#A5A5A5"/>
<path d="M224.911 130.976C224.882 131.515 222.461 131.789 218.989 131.732C217.599 131.732 216.028 131.676 214.373 131.553C212.349 131.373 210.504 131.165 208.905 130.919C208.792 130.891 208.678 130.891 208.565 130.862C206.257 130.474 204.611 130.02 204.157 129.632C204.072 129.538 204.015 129.453 204.015 129.396C204.043 128.942 205.699 128.677 208.224 128.639C209.993 128.582 212.178 128.639 214.543 128.819C215.849 128.914 217.078 129.027 218.214 129.178C222.139 129.689 224.901 130.408 224.901 130.985L224.911 130.976Z" fill="#686868"/>
<g style="mix-blend-mode:multiply" opacity="0.2">
<path d="M213.55 78.3339L213.181 83.546L212.491 93.1474L212.415 94.3866V94.4622L212.349 95.2663L209.984 94.8028L208.205 94.4528L208.347 92.7974L208.414 92.2014L208.858 87.0176L209.643 78.0122C209.738 76.9812 210.589 76.196 211.62 76.2149C212.755 76.2149 213.645 77.1893 213.569 78.3244L213.55 78.3339Z" fill="#FF5800"/>
</g>
<path d="M213.087 78.4853L212.841 83.3853L212.377 92.4001L212.33 93.5636V93.6393L212.282 94.3866L210.05 93.9988L208.376 93.7055L208.47 92.1542L208.518 91.5961L208.83 86.7244L209.388 78.2677C209.464 77.3028 210.239 76.5461 211.204 76.5461C212.273 76.5177 213.115 77.4163 213.068 78.4853H213.087Z" fill="#FCAF88"/>
<path d="M210.731 78.296L210.542 83.196L210.192 92.2392L210.154 93.4027V93.45L210.116 94.1973L208.423 93.8095L208.272 93.7811L208.347 92.3244L208.385 91.7663L208.622 86.8946L209.047 78.4379C209.104 77.5865 209.709 76.9338 210.315 76.7825C210.665 77.123 210.741 77.6622 210.731 78.2865V78.296Z" fill="#F9C0A7"/>
<path d="M207.997 107.251C208.631 107.933 208.574 109.02 207.903 109.654L207.827 109.701C207.515 109.995 207.127 110.118 206.739 110.137L206.881 110.43C207.364 111.234 207.08 112.274 206.276 112.757L206.2 112.785C205.623 113.126 204.942 113.078 204.403 112.738C204.28 112.88 204.138 113.031 203.939 113.126L203.892 113.173C203.674 113.315 203.381 113.362 203.116 113.419C202.511 113.447 201.877 113.126 201.565 112.549L196.599 103.969C196.523 103.846 196.504 103.723 196.476 103.61C196.646 103.704 196.911 103.657 197.176 103.562C197.422 103.468 197.658 103.345 197.809 103.316C200.307 102.928 204.422 102.228 207.505 103.241L208.064 103.846C208.697 104.546 208.641 105.615 207.941 106.249L207.893 106.324C207.751 106.447 207.581 106.542 207.411 106.618L207.988 107.27L207.997 107.251Z" fill="#F9C0A7"/>
<path d="M221.127 131.714C219.718 131.714 218.147 131.638 216.501 131.543C214.487 131.354 212.623 131.156 211.053 130.938L209.549 125.707C209.161 125.291 208.82 124.884 208.508 124.496C205.935 121.346 205.604 119.019 205.841 117.345C206.105 115.5 207.127 114.753 207.903 112.501C208.073 112.066 208.196 111.631 208.291 111.196C208.943 108.406 209.066 105.549 208.555 103.657C208.215 103.487 207.874 103.345 207.515 103.241C204.441 102.219 200.316 102.929 197.819 103.316C197.677 103.345 197.431 103.458 197.185 103.562H196.485V103.61C196.362 103.534 196.268 103.392 196.239 103.174C195.993 101.018 195.653 98.2555 195.435 96.4109C195.312 95.2947 196.012 94.2542 197.109 93.942C200.477 92.9488 203.826 91.9744 207.212 90.9623H207.288C207.704 91.1798 208.111 91.3974 208.527 91.615L208.48 92.1731L208.385 93.7244L210.059 94.0177L212.292 94.4055L212.339 93.6582C212.415 93.6866 212.462 93.7339 212.538 93.7528C213.001 94.5001 213.455 95.2758 213.919 96.0326C214.382 96.7609 214.742 97.5082 215.518 98.2366C215.782 98.842 216.028 99.3717 216.293 99.9771C216.416 103.515 216.539 107.034 216.605 110.543C216.7 113.135 216.804 115.68 216.87 118.253L221.137 131.733L221.127 131.714Z" fill="#FCAF88"/>
<path d="M197.185 103.543C196.92 103.638 196.655 103.685 196.485 103.591V103.543H197.185Z" fill="#FCAF88"/>
<path d="M212.33 93.6393L212.282 94.3866L210.05 93.9988L208.376 93.7055L208.47 92.1542L208.518 91.5961C209.776 92.2772 211.034 92.9298 212.32 93.6298L212.33 93.6393Z" fill="#FCAF88"/>
<path d="M203.126 113.409C202.52 113.438 201.887 113.116 201.574 112.539L196.608 103.959C196.532 103.837 196.514 103.714 196.485 103.6V103.553H197.261L203.126 113.419V113.409Z" fill="#FCAF88"/>
<g style="mix-blend-mode:multiply" opacity="0.2">
<path d="M195.464 97.7068L204.1 97.0541L195.549 98.4162L195.464 97.7068Z" fill="#FF5800"/>
</g>
<g style="mix-blend-mode:multiply" opacity="0.2">
<path d="M208.215 101.018C207.496 100.204 206.314 100.128 205.301 100.024C202.142 99.8352 198.964 100.289 195.861 100.819L195.747 100.119C198.926 99.7595 202.132 99.4852 205.32 99.8541C206.332 100.015 207.543 100.166 208.215 101.027V101.018Z" fill="#FF5800"/>
</g>
<g style="mix-blend-mode:multiply" opacity="0.2">
<path d="M195.189 95.7203L203.277 94.1879L195.359 96.4392L195.189 95.7203Z" fill="#FF5800"/>
</g>
<g style="mix-blend-mode:multiply" opacity="0.28">
<path d="M194.659 171.538L175.126 172.134V130.172L176.734 170.819L194.659 171.538Z" fill="#A5A5A5"/>
</g>
<g style="mix-blend-mode:multiply" opacity="0.28">
<path d="M246.686 129.85L249.439 162.788L224.088 129.85L247.812 158.872L246.686 129.85Z" fill="#A5A5A5"/>
</g>
<path d="M217.996 170.819C217.996 170.819 222.764 179.616 218.989 190.258C218.989 190.258 215.253 180.307 217.996 170.819Z" fill="#686868"/>
<path d="M237.057 189.823C235.562 190.636 229.678 188.584 226.207 188.054C226.207 188.054 218.374 187.184 218.015 187.155H217.986C217.939 186.909 216.596 180.43 217.05 176.334L225.072 172.834C225.072 172.834 230.009 180.515 230.057 180.543C232.743 184.516 236.981 189.776 237.047 189.832L237.057 189.823Z" fill="#F9B995"/>
<g style="mix-blend-mode:multiply" opacity="0.2">
<path d="M258.123 194.619C258.123 194.619 245.93 196.388 238.759 193.55C237.303 192.992 236.073 192.235 235.099 191.318C234.597 190.835 229.962 184.658 227.73 181.366C226.15 179.068 220.124 169.324 218.791 166.95H218.762C213.645 158.03 208.631 148.211 205.188 139.518C205.065 136.557 204.828 131.496 204.895 131.685C205.084 132.291 205.282 132.924 205.5 133.549C205.765 134.372 206.077 135.223 206.418 136.065C209.445 144.058 213.909 153.149 218.63 161.662C218.677 161.71 218.705 161.785 218.724 161.833C221.051 165.976 229.366 179.285 229.801 179.891C229.801 179.938 229.83 179.966 229.877 179.985C232.564 183.958 237.17 189.634 237.246 189.681C237.757 190.211 238.334 190.674 239.015 191.034C244.199 194.212 253.601 193.919 257.139 193.578C257.499 193.531 257.697 193.503 257.697 193.503L258.114 194.619H258.123Z" fill="black"/>
</g>
<path d="M257.707 193.493C257.707 193.493 242.572 195.991 237.236 190.022C228.212 179.928 209.577 148.589 204.166 129.245C204.166 129.245 211.412 131.761 224.92 130.985C224.92 130.985 248.219 163.914 257.707 171.576C267.195 179.238 257.707 193.503 257.707 193.503V193.493Z" fill="#A5A5A5"/>
<g style="mix-blend-mode:multiply" opacity="0.33">
<path d="M208.423 57.9392C207.761 60.0203 211.478 61.6284 211.478 61.6284C209.473 61.723 208.716 61.3446 207.751 60.7865C206.522 60.0771 206.323 58.4216 207.241 57.3338L212.689 47.5149L208.423 57.9392Z" fill="#FF3B2C"/>
</g>
<g style="mix-blend-mode:multiply" opacity="0.33">
<path d="M209.114 67.8812C213.342 65.3933 217.873 65.0339 222.451 66.7744C222.546 66.7933 222.584 66.9352 222.47 66.9541C219.15 67.3136 212.462 67.8717 209.132 68.0609C209.019 68.0609 209.019 67.9095 209.114 67.8812Z" fill="#FF3B2C"/>
</g>
<path d="M198.443 49C198.443 49 199.872 44.7432 205.386 44.7338C205.386 44.7338 207.543 44.0432 206.957 42.8135C206.37 41.5932 199.455 41.6405 198.434 48.9905L198.443 49Z" fill="#3F2811"/>
<path d="M227.919 51.9514C227.919 51.9514 227.758 47.4581 222.461 45.8973C222.461 45.8973 220.588 44.6203 221.496 43.6176C222.404 42.6149 229.016 44.6203 227.919 51.9514Z" fill="#3F2811"/>
<path d="M222.575 51.6865C222.746 50.5869 221.995 49.5576 220.898 49.3876C219.801 49.2175 218.773 49.9712 218.603 51.0708L218.475 51.8934C218.305 52.9931 219.056 54.0223 220.153 54.1924C221.25 54.3624 222.277 53.6088 222.448 52.5092L222.575 51.6865Z" fill="#3F2811"/>
<path d="M206.501 50.042C206.671 48.9424 205.92 47.9131 204.823 47.743C203.726 47.573 202.698 48.3266 202.528 49.4263L202.441 49.9871C202.27 51.0868 203.022 52.1161 204.119 52.2861C205.216 52.4561 206.243 51.7025 206.414 50.6029L206.501 50.042Z" fill="#3F2811"/>
<g style="mix-blend-mode:multiply" opacity="0.21">
<path d="M253.091 40.3541C253.091 40.3541 224.655 19.0041 194.272 24.2635C194.414 23.9514 194.65 23.1 195.643 20.4608C207.628 22.3149 229.631 23.5824 248.323 16.4784C250.149 22.3149 252.57 37.1568 253.091 40.3541Z" fill="black"/>
</g>
</svg>
